# xmcd CD database file
#
# Track frame offsets:
#	150
#	15182
#	33156
#	47246
#	68504
#	78742
#	102905
#	121119
#	140213
#	157868
#
# Disc length: 2352 seconds
#
# Revision: 0
# Processed by: cddbd v1.4PL0 Copyright (c) Steve Scherf et al.
# Submitted via: CDex 1.40Beta9
#
DISCID=74092e0a
DTITLE=The Nimmo Brothers - New Moon Over Memphis
DYEAR=2003
DGENRE=Blues
TTITLE0=New Moon Over Memphis
TTITLE1=Too Late
TTITLE2=If You Need Me (Just Call My Name)
TTITLE3=Every Time You Smile
TTITLE4=Buttercup
TTITLE5=Feels Like Rain
TTITLE6=Do You Know
TTITLE7=Hard To Be Alone
TTITLE8=Never Lose Your Faith
TTITLE9=Be My Friend
EXTD=YEAR: 2003 ID3G: 0
EXTT0=
EXTT1=
EXTT2=
EXTT3=
EXTT4=
EXTT5=
EXTT6=
EXTT7=
EXTT8=
EXTT9=
PLAYORDER=
